<svg xmlns="http://www.w3.org/2000/svg" id="interview-loop-dark" width="100%" class="flowchart" style="font-size:15px;fill:#eceae4;max-width:1161.94px;background-color:transparent" viewBox="0 0 1161.945 144.75"><style><![CDATA[@keyframes edge-animation-frame{0%{stroke-dashoffset:0}}@keyframes dash{to{stroke-dashoffset:0}}#interview-loop-dark .edge-thickness-normal{stroke-width:1px}#interview-loop-dark .edge-pattern-solid{stroke-dasharray:0}#interview-loop-dark .marker{fill:#8a8a93;stroke:#8a8a93}#interview-loop-dark .marker.cross{stroke:#8a8a93}#interview-loop-dark svg{font-size:15px}#interview-loop-dark p{margin:0}#interview-loop-dark .label{color:#eceae4}#interview-loop-dark span{fill:#eceae4;color:#eceae4}#interview-loop-dark .node circle,#interview-loop-dark .node path,#interview-loop-dark .node rect{fill:#1d1d24;stroke:#3a3a43;stroke-width:1px}#interview-loop-dark .node .label{text-align:center}#interview-loop-dark .flowchart-link{stroke:#8a8a93;fill:none}#interview-loop-dark .edgeLabel{background-color:#15151b;text-align:center}#interview-loop-dark .edgeLabel rect{opacity:.5;background-color:#15151b;fill:#15151b}#interview-loop-dark .labelBkg{background-color:rgba(21,21,27,.5)}#interview-loop-dark [data-look=neo].node circle,#interview-loop-dark [data-look=neo].node rect{stroke:url(#interview-loop-dark-gradient);filter:drop-shadow(1px 2px 2px #b9b9b9)}#interview-loop-dark [data-look=neo].node path{stroke:url(#interview-loop-dark-gradient);stroke-width:1px}#interview-loop-dark [data-look=neo].node .outer-path{filter:drop-shadow(1px 2px 2px #b9b9b9)}#interview-loop-dark :root{--mermaid-font-family:"trebuchet ms",verdana,arial,sans-serif}#interview-loop-dark .edge>*{fill:#25252d!important;stroke:#3a3a43!important;color:#eceae4!important}#interview-loop-dark .accent>*{fill:#8fa1ef!important;stroke:#8fa1ef!important;color:#14141a!important}]]></style><marker id="interview-loop-dark_flowchart-v2-pointEnd" class="marker flowchart-v2" markerHeight="8" markerUnits="userSpaceOnUse" markerWidth="8" orient="auto" refX="5" refY="5" viewBox="0 0 10 10"><path d="m0 0 10 5-10 5z" class="arrowMarkerPath" style="stroke-width:1;stroke-dasharray:1,0"/></marker><marker id="interview-loop-dark_flowchart-v2-pointStart" class="marker flowchart-v2" markerHeight="8" markerUnits="userSpaceOnUse" markerWidth="8" orient="auto" refX="4.5" refY="5" viewBox="0 0 10 10"><path d="m0 5 10 5V0z" class="arrowMarkerPath" style="stroke-width:1;stroke-dasharray:1,0"/></marker><marker id="interview-loop-dark_flowchart-v2-pointEnd-margin" class="marker flowchart-v2" markerHeight="14" markerUnits="userSpaceOnUse" markerWidth="10.5" orient="auto" refX="11.5" refY="7" viewBox="0 0 11.5 14"><path d="m0 0 11.5 7L0 14z" class="arrowMarkerPath" style="stroke-width:0;stroke-dasharray:1,0"/></marker><marker id="interview-loop-dark_flowchart-v2-pointStart-margin" class="marker flowchart-v2" markerHeight="14" markerUnits="userSpaceOnUse" markerWidth="11.5" orient="auto" refX="1" refY="7" viewBox="0 0 11.5 14"><path d="m0 7 11.5 7V0z" class="arrowMarkerPath" style="stroke-width:0;stroke-dasharray:1,0"/></marker><marker id="interview-loop-dark_flowchart-v2-circleEnd" class="marker flowchart-v2" markerHeight="11" markerUnits="userSpaceOnUse" markerWidth="11" orient="auto" refX="11" refY="5" viewBox="0 0 10 10"><circle cx="5" cy="5" r="5" class="arrowMarkerPath" style="stroke-width:1;stroke-dasharray:1,0"/></marker><marker id="interview-loop-dark_flowchart-v2-circleStart" class="marker flowchart-v2" markerHeight="11" markerUnits="userSpaceOnUse" markerWidth="11" orient="auto" refX="-1" refY="5" viewBox="0 0 10 10"><circle cx="5" cy="5" r="5" class="arrowMarkerPath" style="stroke-width:1;stroke-dasharray:1,0"/></marker><marker id="interview-loop-dark_flowchart-v2-circleEnd-margin" class="marker flowchart-v2" markerHeight="14" markerUnits="userSpaceOnUse" markerWidth="14" orient="auto" refX="12.25" refY="5" viewBox="0 0 10 10"><circle cx="5" cy="5" r="5" class="arrowMarkerPath" style="stroke-width:0;stroke-dasharray:1,0"/></marker><marker id="interview-loop-dark_flowchart-v2-circleStart-margin" class="marker flowchart-v2" markerHeight="14" markerUnits="userSpaceOnUse" markerWidth="14" orient="auto" refX="-2" refY="5" viewBox="0 0 10 10"><circle cx="5" cy="5" r="5" class="arrowMarkerPath" style="stroke-width:0;stroke-dasharray:1,0"/></marker><marker id="interview-loop-dark_flowchart-v2-crossEnd" class="marker cross flowchart-v2" markerHeight="11" markerUnits="userSpaceOnUse" markerWidth="11" orient="auto" refX="12" refY="5.2" viewBox="0 0 11 11"><path d="m1 1 9 9m0-9-9 9" class="arrowMarkerPath" style="stroke-width:2;stroke-dasharray:1,0"/></marker><marker id="interview-loop-dark_flowchart-v2-crossStart" class="marker cross flowchart-v2" markerHeight="11" markerUnits="userSpaceOnUse" markerWidth="11" orient="auto" refX="-1" refY="5.2" viewBox="0 0 11 11"><path d="m1 1 9 9m0-9-9 9" class="arrowMarkerPath" style="stroke-width:2;stroke-dasharray:1,0"/></marker><marker id="interview-loop-dark_flowchart-v2-crossEnd-margin" class="marker cross flowchart-v2" markerHeight="12" markerUnits="userSpaceOnUse" markerWidth="12" orient="auto" refX="17.7" refY="7.5" viewBox="0 0 15 15"><path d="m1 1 13 13M1 14 14 1" class="arrowMarkerPath" style="stroke-width:2.5"/></marker><marker id="interview-loop-dark_flowchart-v2-crossStart-margin" class="marker cross flowchart-v2" markerHeight="12" markerUnits="userSpaceOnUse" markerWidth="12" orient="auto" refX="-3.5" refY="7.5" viewBox="0 0 15 15"><path d="m1 1 13 13M1 14 14 1" class="arrowMarkerPath" style="stroke-width:2.5;stroke-dasharray:1,0"/></marker><g class="root"><g class="edgePaths"><path id="interview-loop-dark-L_I_T_0" marker-end="url(#interview-loop-dark_flowchart-v2-pointEnd)" d="m226.119 61.347 5.536-1.599c5.536-1.6 16.608-4.799 25.144-6.398 8.536-1.6 14.536-1.6 17.536-1.6h3" class="edge-thickness-normal edge-pattern-solid edge-thickness-normal edge-pattern-solid flowchart-link"/><path id="interview-loop-dark-L_T_S_0" marker-end="url(#interview-loop-dark_flowchart-v2-pointEnd)" d="M521.335 51.75h128.891" class="edge-thickness-normal edge-pattern-solid edge-thickness-normal edge-pattern-solid flowchart-link"/><path id="interview-loop-dark-L_S_G_0" marker-end="url(#interview-loop-dark_flowchart-v2-pointEnd)" d="M894.226 51.75h3.666c3.667 0 11 0 17.692.859s12.743 2.577 15.769 3.436l3.025.859" class="edge-thickness-normal edge-pattern-solid edge-thickness-normal edge-pattern-solid flowchart-link"/><path id="interview-loop-dark-L_G_I_0" marker-end="url(#interview-loop-dark_flowchart-v2-pointEnd)" d="m938.226 119.253-3.667 1.041c-3.667 1.041-11 3.124-38.333 4.165-27.334 1.041-74.667 1.041-129.408 1.041H408.743c-54.741 0-102.074 0-130.632-1.266-28.557-1.266-38.338-3.797-43.229-5.063l-4.891-1.266" class="edge-thickness-normal edge-pattern-solid edge-thickness-normal edge-pattern-solid flowchart-link"/></g><g class="edgeLabels"><g class="edgeLabel"><foreignObject width="0" height="0" class="label"><div xmlns="http://www.w3.org/1999/xhtml" class="labelBkg" style="display:table-cell;white-space:nowrap;line-height:1.5;max-width:200px;text-align:center"><span class="edgeLabel"/></div></foreignObject></g><g class="edgeLabel"><foreignObject width="0" height="0" class="label"><div xmlns="http://www.w3.org/1999/xhtml" class="labelBkg" style="display:table-cell;white-space:nowrap;line-height:1.5;max-width:200px;text-align:center"><span class="edgeLabel"/></div></foreignObject></g><g class="edgeLabel"><foreignObject width="0" height="0" class="label"><div xmlns="http://www.w3.org/1999/xhtml" class="labelBkg" style="display:table-cell;white-space:nowrap;line-height:1.5;max-width:200px;text-align:center"><span class="edgeLabel"/></div></foreignObject></g><g class="edgeLabel"><foreignObject width="88.891" height="22.5" class="label" transform="translate(543.335 114.25)"><div xmlns="http://www.w3.org/1999/xhtml" class="labelBkg" style="display:table-cell;white-space:nowrap;line-height:1.5;max-width:200px;text-align:center"><span class="edgeLabel"><p style="background-color:#15151b">next morning</p></span></div></foreignObject></g></g><g class="nodes"><g id="interview-loop-dark-flowchart-I-0" class="node default edge"><g class="basic label-container outer-path"><path stroke="none" stroke-width="0" d="M-75.937-38.75H75.938l2.482.08 2.473.238 2.452.397 2.422.552 2.38.707 2.332.858 2.271 1.005 2.203 1.15 2.124 1.287 2.037 1.421 1.942 1.549 1.84 1.67 1.727 1.784 1.61 1.892 1.486 1.99 1.355 2.082 1.22 2.165c.26.543.522 1.086 1.077 2.238l.932 2.302.783 2.358.63 2.402.475 2.439.317 2.463.16 2.479v2.484l-.16 2.479-.317 2.463-.475 2.439-.63 2.402-.783 2.358-.932 2.302-1.078 2.238-1.219 2.165-1.355 2.082c-.3.4-.599.802-1.486 1.99l-1.61 1.892-1.728 1.784-1.839 1.67-1.942 1.549-2.037 1.42-2.124 1.289-2.203 1.149-2.27 1.005-2.332.858-2.381.707-2.422.552-2.452.397-2.473.238-2.482.08H-75.937l-2.483-.08-2.473-.238-2.452-.397-2.422-.552-2.38-.707-2.332-.858-2.271-1.005-2.203-1.15-2.124-1.287-2.037-1.421-1.942-1.549-1.84-1.67-1.727-1.784-1.61-1.892-1.486-1.99-1.355-2.082-1.22-2.165-1.077-2.238-.932-2.302-.783-2.358-.63-2.402-.475-2.439-.317-2.463-.16-2.479v-2.484l.16-2.479.317-2.463.475-2.439.63-2.402.783-2.358.932-2.302 1.078-2.238 1.219-2.165 1.355-2.082 1.486-1.99 1.61-1.892 1.728-1.784 1.839-1.67 1.942-1.549 2.037-1.42 2.124-1.289 2.203-1.149 2.27-1.005 2.332-.858 2.381-.707 2.422-.552 2.452-.397 2.473-.238c.76-.025 1.519-.05 2.482-.08" style="fill:#25252d!important;stroke:#3a3a43!important" transform="translate(122.668 88.625)"/><path fill="none" stroke-dasharray="0 0" stroke-width="1.3" d="M-75.937-38.75H75.938m-151.875 0H75.938m0 0 2.482.08m-2.483-.08 2.483.08m0 0 2.473.238m-2.473-.238 2.473.238m0 0 2.452.397m-2.452-.397 2.452.397m0 0 2.422.552m-2.422-.552 2.422.552m0 0 2.38.707m-2.38-.707 2.38.707m0 0 2.332.858m-2.331-.858 2.331.858m0 0 2.271 1.005m-2.27-1.005 2.27 1.005m0 0 2.203 1.15m-2.203-1.15 2.203 1.15m0 0 2.124 1.287m-2.124-1.288 2.124 1.288m0 0 2.037 1.421m-2.037-1.42 2.037 1.42m0 0 1.942 1.549m-1.942-1.549 1.942 1.549m0 0 1.84 1.67m-1.84-1.67 1.84 1.67m0 0 1.727 1.784m-1.728-1.784 1.728 1.784m0 0 1.61 1.892m-1.61-1.892 1.61 1.892m0 0 1.486 1.99m-1.486-1.99 1.486 1.99m0 0 1.355 2.082m-1.355-2.082 1.355 2.082m0 0 1.22 2.165m-1.22-2.165 1.22 2.165m0 0 1.077 2.238m-1.078-2.238 1.078 2.238m0 0 .932 2.302m-.932-2.302.932 2.302m0 0 .783 2.358m-.783-2.358c.31.93.618 1.861.783 2.358m0 0 .63 2.402m-.63-2.402.63 2.402m0 0 .475 2.439m-.475-2.439.475 2.439m0 0 .317 2.463m-.317-2.463.317 2.463m0 0 .16 2.479m-.16-2.479.16 2.479m0 0v2.484m0-2.484v2.484m0 0-.16 2.479m.16-2.479-.16 2.479m0 0-.317 2.463m.317-2.463-.317 2.463m0 0-.475 2.439m.475-2.439-.475 2.439m0 0-.63 2.402m.63-2.402-.63 2.402m0 0-.783 2.358m.783-2.358-.783 2.358m0 0-.932 2.302m.932-2.302-.932 2.302m0 0-1.078 2.238m1.078-2.238c-.245.51-.49 1.02-1.078 2.238m0 0-1.219 2.165m1.22-2.165-1.22 2.165m0 0-1.355 2.082m1.355-2.082-1.355 2.082m0 0-1.486 1.99m1.486-1.99-1.486 1.99m0 0-1.61 1.892m1.61-1.892-1.61 1.892m0 0-1.728 1.784m1.728-1.784-1.728 1.784m0 0-1.839 1.67m1.84-1.67-1.84 1.67m0 0-1.942 1.549m1.942-1.549-1.942 1.549m0 0-2.037 1.42m2.037-1.42-2.037 1.42m0 0-2.124 1.289m2.124-1.288-2.124 1.288m0 0-2.203 1.149m2.203-1.15c-.63.33-1.26.658-2.203 1.15m0 0-2.27 1.005m2.27-1.005-2.27 1.005m0 0-2.332.858m2.331-.858-2.331.858m0 0-2.381.707m2.38-.707-2.38.707m0 0-2.422.552m2.422-.552-2.422.552m0 0-2.452.397m2.452-.397-2.452.397m0 0-2.473.238m2.473-.238-2.473.238m0 0-2.482.08m2.482-.08-2.482.08m0 0H-75.937m151.875 0H-75.937m0 0-2.483-.08m2.483.08-2.483-.08m0 0-2.473-.238m2.473.238-2.473-.238m0 0-2.452-.397m2.452.397-2.452-.397m0 0-2.422-.552m2.422.552-2.422-.552m0 0-2.38-.707m2.38.707-2.38-.707m0 0-2.332-.858m2.331.858-2.331-.858m0 0-2.271-1.005m2.27 1.005-2.27-1.005m0 0-2.203-1.15m2.203 1.15-2.203-1.15m0 0-2.124-1.287m2.124 1.288-2.124-1.288m0 0-2.037-1.421m2.037 1.42-2.037-1.42m0 0-1.942-1.549m1.942 1.549-1.942-1.549m0 0-1.84-1.67m1.84 1.67-1.84-1.67m0 0-1.727-1.784m1.728 1.784-1.728-1.784m0 0-1.61-1.892m1.61 1.892-1.61-1.892m0 0-1.486-1.99m1.486 1.99-1.486-1.99m0 0-1.355-2.082m1.355 2.082-1.355-2.082m0 0-1.22-2.165m1.22 2.165-1.22-2.165m0 0-1.077-2.238m1.078 2.238-1.078-2.238m0 0-.932-2.302m.932 2.302-.932-2.302m0 0-.783-2.358m.783 2.358-.783-2.358m0 0-.63-2.402m.63 2.402-.63-2.402m0 0-.475-2.439m.475 2.439-.475-2.439m0 0-.317-2.463m.317 2.463-.317-2.463m0 0-.16-2.479m.16 2.479-.16-2.479m0 0v-2.484m0 2.484v-2.484m0 0 .16-2.479m-.16 2.479.16-2.479m0 0 .317-2.463m-.317 2.463.317-2.463m0 0 .475-2.439m-.475 2.439.475-2.439m0 0 .63-2.402m-.63 2.402.63-2.402m0 0 .783-2.358m-.783 2.358.783-2.358m0 0 .932-2.302m-.932 2.302.932-2.302m0 0 1.078-2.238m-1.078 2.238 1.078-2.238m0 0 1.219-2.165m-1.22 2.165 1.22-2.165m0 0c.36-.555.722-1.11 1.355-2.082m-1.355 2.082 1.355-2.082m0 0 1.486-1.99m-1.486 1.99 1.486-1.99m0 0 1.61-1.892m-1.61 1.892 1.61-1.892m0 0 1.728-1.784m-1.728 1.784 1.728-1.784m0 0 1.839-1.67m-1.84 1.67 1.84-1.67m0 0 1.942-1.549m-1.942 1.549 1.942-1.549m0 0 2.037-1.42m-2.037 1.42 2.037-1.42m0 0 2.124-1.289m-2.124 1.288 2.124-1.288m0 0 2.203-1.149m-2.203 1.15 2.203-1.15m0 0 2.27-1.005m-2.27 1.005 2.27-1.005m0 0 2.332-.858m-2.331.858 2.331-.858m0 0 2.381-.707m-2.38.707 2.38-.707m0 0 2.422-.552m-2.422.552 2.422-.552m0 0 2.452-.397m-2.452.397 2.452-.397m0 0 2.473-.238m-2.473.238 2.473-.238m0 0 2.482-.08m-2.482.08c.584-.02 1.17-.038 2.482-.08m0 0" style="fill:#25252d!important;stroke:#3a3a43!important" transform="translate(122.668 88.625)"/></g><g class="label" style="color:#eceae4!important" transform="translate(22.668 54.875)"><rect/><foreignObject width="200" height="67.5"><div xmlns="http://www.w3.org/1999/xhtml" style="color:#eceae4!important;display:table;white-space:break-spaces;line-height:1.5;max-width:200px;text-align:center;width:200px"><span class="nodeLabel" style="fill:#25252d!important;stroke:#3a3a43!important;color:#eceae4!important"><p>a day of interviews<br/>local capture, names scrubbed</p></span></div></foreignObject></g></g><g id="interview-loop-dark-flowchart-T-1" class="node default"><path d="M281.335 8h240v87.5h-240z" class="basic label-container"/><g class="label" transform="translate(301.335 18)"><rect/><foreignObject width="200" height="67.5"><div xmlns="http://www.w3.org/1999/xhtml" style="display:table;white-space:break-spaces;line-height:1.5;max-width:200px;text-align:center;width:200px"><span class="nodeLabel"><p>overnight re-transcription<br/>slower model, higher accuracy</p></span></div></foreignObject></g></g><g id="interview-loop-dark-flowchart-S-3" class="node default accent"><path d="M-120-43.75h240v87.5h-240z" class="basic label-container" style="fill:#8fa1ef!important;stroke:#8fa1ef!important" transform="translate(774.226 51.75)"/><g class="label" style="color:#14141a!important" transform="translate(674.226 18)"><rect/><foreignObject width="200" height="67.5"><div xmlns="http://www.w3.org/1999/xhtml" style="color:#14141a!important;display:table;white-space:break-spaces;line-height:1.5;max-width:200px;text-align:center;width:200px"><span class="nodeLabel" style="fill:#8fa1ef!important;stroke:#8fa1ef!important;color:#14141a!important"><p>synthesis fan: per-person notes<br/>scorecard · contradictions</p></span></div></foreignObject></g></g><g id="interview-loop-dark-flowchart-G-5" class="node default"><path d="M938.226 56.125h215.72v65h-215.72z" class="basic label-container"/><g class="label" transform="translate(958.226 66.125)"><rect/><foreignObject width="175.719" height="45"><div xmlns="http://www.w3.org/1999/xhtml" style="display:table-cell;white-space:nowrap;line-height:1.5;max-width:200px;text-align:center"><span class="nodeLabel"><p>interview guides re-aimed<br/>at the thinnest evidence</p></span></div></foreignObject></g></g></g></g><defs><filter id="interview-loop-dark-drop-shadow" width="130%" height="130%"><feDropShadow dx="4" dy="4" flood-color="#000" flood-opacity=".06" stdDeviation="0"/></filter></defs><defs><filter id="interview-loop-dark-drop-shadow-small" width="150%" height="150%"><feDropShadow dx="2" dy="2" flood-color="#000" flood-opacity=".06" stdDeviation="0"/></filter></defs><linearGradient id="interview-loop-dark-gradient" x1="0%" x2="100%" y1="0%" y2="0%" gradientUnits="objectBoundingBox"><stop offset="0%" stop-color="#3a3a43"/><stop offset="100%" stop-color="hsl(240, 0%, 2.7450980392%)"/></linearGradient></svg>