<svg xmlns="http://www.w3.org/2000/svg" id="vault-pipeline-light" width="100%" class="flowchart" style="font-size:15px;fill:#1c1d24;max-width:1194.63px;background-color:transparent" viewBox="0 0 1194.628 209.946"><style><![CDATA[@keyframes edge-animation-frame{0%{stroke-dashoffset:0}}@keyframes dash{to{stroke-dashoffset:0}}#vault-pipeline-light .edge-thickness-normal{stroke-width:1px}#vault-pipeline-light .edge-pattern-solid{stroke-dasharray:0}#vault-pipeline-light .marker{fill:#8a8a90;stroke:#8a8a90}#vault-pipeline-light .marker.cross{stroke:#8a8a90}#vault-pipeline-light svg{font-size:15px}#vault-pipeline-light p{margin:0}#vault-pipeline-light .label{color:#1c1d24}#vault-pipeline-light span{fill:#1c1d24;color:#1c1d24}#vault-pipeline-light .node circle,#vault-pipeline-light .node path,#vault-pipeline-light .node rect{fill:#fff;stroke:#cfcfd1;stroke-width:1px}#vault-pipeline-light .node .label{text-align:center}#vault-pipeline-light .flowchart-link{stroke:#8a8a90;fill:none}#vault-pipeline-light .edgeLabel{background-color:#f7f6f2;text-align:center}#vault-pipeline-light .edgeLabel rect{opacity:.5;background-color:#f7f6f2;fill:#f7f6f2}#vault-pipeline-light .labelBkg{background-color:rgba(247,246,242,.5)}#vault-pipeline-light [data-look=neo].node circle,#vault-pipeline-light [data-look=neo].node rect{stroke:url(#vault-pipeline-light-gradient);filter:drop-shadow(1px 2px 2px #b9b9b9)}#vault-pipeline-light [data-look=neo].node path{stroke:url(#vault-pipeline-light-gradient);stroke-width:1px}#vault-pipeline-light [data-look=neo].node .outer-path{filter:drop-shadow(1px 2px 2px #b9b9b9)}#vault-pipeline-light :root{--mermaid-font-family:"trebuchet ms",verdana,arial,sans-serif}#vault-pipeline-light .edge>*{fill:#f1f0ec!important;stroke:#cfcfd1!important;color:#1c1d24!important}#vault-pipeline-light .accent>*{fill:#2f3eb0!important;stroke:#2f3eb0!important;color:#fff!important}#vault-pipeline-light .fail>*{fill:#f7e6e2!important;stroke:#c0402b!important;color:#8f2b1c!important}]]></style><marker id="vault-pipeline-light_flowchart-v2-pointEnd" class="marker flowchart-v2" markerHeight="8" markerUnits="userSpaceOnUse" markerWidth="8" orient="auto" refX="5" refY="5" viewBox="0 0 10 10"><path d="m0 0 10 5-10 5z" class="arrowMarkerPath" style="stroke-width:1;stroke-dasharray:1,0"/></marker><marker id="vault-pipeline-light_flowchart-v2-pointStart" class="marker flowchart-v2" markerHeight="8" markerUnits="userSpaceOnUse" markerWidth="8" orient="auto" refX="4.5" refY="5" viewBox="0 0 10 10"><path d="m0 5 10 5V0z" class="arrowMarkerPath" style="stroke-width:1;stroke-dasharray:1,0"/></marker><marker id="vault-pipeline-light_flowchart-v2-pointEnd-margin" class="marker flowchart-v2" markerHeight="14" markerUnits="userSpaceOnUse" markerWidth="10.5" orient="auto" refX="11.5" refY="7" viewBox="0 0 11.5 14"><path d="m0 0 11.5 7L0 14z" class="arrowMarkerPath" style="stroke-width:0;stroke-dasharray:1,0"/></marker><marker id="vault-pipeline-light_flowchart-v2-pointStart-margin" class="marker flowchart-v2" markerHeight="14" markerUnits="userSpaceOnUse" markerWidth="11.5" orient="auto" refX="1" refY="7" viewBox="0 0 11.5 14"><path d="m0 7 11.5 7V0z" class="arrowMarkerPath" style="stroke-width:0;stroke-dasharray:1,0"/></marker><marker id="vault-pipeline-light_flowchart-v2-circleEnd" class="marker flowchart-v2" markerHeight="11" markerUnits="userSpaceOnUse" markerWidth="11" orient="auto" refX="11" refY="5" viewBox="0 0 10 10"><circle cx="5" cy="5" r="5" class="arrowMarkerPath" style="stroke-width:1;stroke-dasharray:1,0"/></marker><marker id="vault-pipeline-light_flowchart-v2-circleStart" class="marker flowchart-v2" markerHeight="11" markerUnits="userSpaceOnUse" markerWidth="11" orient="auto" refX="-1" refY="5" viewBox="0 0 10 10"><circle cx="5" cy="5" r="5" class="arrowMarkerPath" style="stroke-width:1;stroke-dasharray:1,0"/></marker><marker id="vault-pipeline-light_flowchart-v2-circleEnd-margin" class="marker flowchart-v2" markerHeight="14" markerUnits="userSpaceOnUse" markerWidth="14" orient="auto" refX="12.25" refY="5" viewBox="0 0 10 10"><circle cx="5" cy="5" r="5" class="arrowMarkerPath" style="stroke-width:0;stroke-dasharray:1,0"/></marker><marker id="vault-pipeline-light_flowchart-v2-circleStart-margin" class="marker flowchart-v2" markerHeight="14" markerUnits="userSpaceOnUse" markerWidth="14" orient="auto" refX="-2" refY="5" viewBox="0 0 10 10"><circle cx="5" cy="5" r="5" class="arrowMarkerPath" style="stroke-width:0;stroke-dasharray:1,0"/></marker><marker id="vault-pipeline-light_flowchart-v2-crossEnd" class="marker cross flowchart-v2" markerHeight="11" markerUnits="userSpaceOnUse" markerWidth="11" orient="auto" refX="12" refY="5.2" viewBox="0 0 11 11"><path d="m1 1 9 9m0-9-9 9" class="arrowMarkerPath" style="stroke-width:2;stroke-dasharray:1,0"/></marker><marker id="vault-pipeline-light_flowchart-v2-crossStart" class="marker cross flowchart-v2" markerHeight="11" markerUnits="userSpaceOnUse" markerWidth="11" orient="auto" refX="-1" refY="5.2" viewBox="0 0 11 11"><path d="m1 1 9 9m0-9-9 9" class="arrowMarkerPath" style="stroke-width:2;stroke-dasharray:1,0"/></marker><marker id="vault-pipeline-light_flowchart-v2-crossEnd-margin" class="marker cross flowchart-v2" markerHeight="12" markerUnits="userSpaceOnUse" markerWidth="12" orient="auto" refX="17.7" refY="7.5" viewBox="0 0 15 15"><path d="m1 1 13 13M1 14 14 1" class="arrowMarkerPath" style="stroke-width:2.5"/></marker><marker id="vault-pipeline-light_flowchart-v2-crossStart-margin" class="marker cross flowchart-v2" markerHeight="12" markerUnits="userSpaceOnUse" markerWidth="12" orient="auto" refX="-3.5" refY="7.5" viewBox="0 0 15 15"><path d="m1 1 13 13M1 14 14 1" class="arrowMarkerPath" style="stroke-width:2.5;stroke-dasharray:1,0"/></marker><g class="root"><g class="edgePaths"><path id="vault-pipeline-light-L_S_J_0" marker-end="url(#vault-pipeline-light_flowchart-v2-pointEnd)" d="m211.05 86.547 3.75-.083c3.75-.083 11.25-.25 18.167-.333 6.916-.084 13.25-.084 16.416-.084h3.167" class="edge-thickness-normal edge-pattern-solid edge-thickness-normal edge-pattern-solid flowchart-link"/><path id="vault-pipeline-light-L_J_B_0" marker-end="url(#vault-pipeline-light_flowchart-v2-pointEnd)" d="m396.431 118.547 15.06 9.317c15.06 9.316 45.181 27.949 83.643 37.265 38.463 9.317 85.267 9.317 126.646 9.317s77.332 0 98.559.069 27.727.207 30.977.277l3.25.069" class="edge-thickness-normal edge-pattern-solid edge-thickness-normal edge-pattern-solid flowchart-link"/><path id="vault-pipeline-light-L_J_L_0" marker-end="url(#vault-pipeline-light_flowchart-v2-pointEnd)" d="m418.201 53.547 11.432-5c11.432-5 34.295-15 69.13-20s81.638-5 123.017-5 77.332 0 103.438 2.137c26.105 2.136 42.362 6.409 50.491 8.545l8.129 2.137" class="edge-thickness-normal edge-pattern-solid edge-thickness-normal edge-pattern-solid flowchart-link"/><path id="vault-pipeline-light-L_J_F_0" marker-end="url(#vault-pipeline-light_flowchart-v2-pointEnd)" d="M431.237 86.047h107.11" class="edge-thickness-normal edge-pattern-solid edge-thickness-normal edge-pattern-solid flowchart-link"/><path id="vault-pipeline-light-L_F_L_0" marker-end="url(#vault-pipeline-light_flowchart-v2-pointEnd)" d="M712.065 86.047h3.834c3.833 0 11.5 0 23.462-2.136s28.219-6.41 36.348-8.546l8.129-2.136" class="edge-thickness-normal edge-pattern-solid edge-thickness-normal edge-pattern-solid flowchart-link"/><path id="vault-pipeline-light-L_L_V_0" marker-end="url(#vault-pipeline-light_flowchart-v2-pointEnd)" d="M920.222 54.797h8.773c8.774 0 26.32 0 43.003 3.818s32.502 11.455 40.412 15.274l7.91 3.818" class="edge-thickness-normal edge-pattern-solid edge-thickness-normal edge-pattern-solid flowchart-link"/><path id="vault-pipeline-light-L_B_V_0" marker-end="url(#vault-pipeline-light_flowchart-v2-pointEnd)" d="m950.362 174.946 3.75-.084c3.75-.083 11.25-.25 23.881-5.022s30.394-14.149 39.275-18.838l8.881-4.689" class="edge-thickness-normal edge-pattern-solid edge-thickness-normal edge-pattern-solid flowchart-link"/></g><g class="edgeLabels"><g class="edgeLabel"><foreignObject width="0" height="0" class="label"><div xmlns="http://www.w3.org/1999/xhtml" class="labelBkg" style="display:table-cell;white-space:nowrap;line-height:1.5;max-width:200px;text-align:center"><span class="edgeLabel"/></div></foreignObject></g><g class="edgeLabel"><foreignObject width="0" height="0" class="label"><div xmlns="http://www.w3.org/1999/xhtml" class="labelBkg" style="display:table-cell;white-space:nowrap;line-height:1.5;max-width:200px;text-align:center"><span class="edgeLabel"/></div></foreignObject></g><g class="edgeLabel"><foreignObject width="0" height="0" class="label"><div xmlns="http://www.w3.org/1999/xhtml" class="labelBkg" style="display:table-cell;white-space:nowrap;line-height:1.5;max-width:200px;text-align:center"><span class="edgeLabel"/></div></foreignObject></g><g class="edgeLabel"><foreignObject width="65.109" height="22.5" class="label" transform="translate(454.237 74.797)"><div xmlns="http://www.w3.org/1999/xhtml" class="labelBkg" style="display:table-cell;white-space:nowrap;line-height:1.5;max-width:200px;text-align:center"><span class="edgeLabel"><p style="background-color:#f7f6f2">on failure</p></span></div></foreignObject></g><g class="edgeLabel"><foreignObject width="0" height="0" class="label"><div xmlns="http://www.w3.org/1999/xhtml" class="labelBkg" style="display:table-cell;white-space:nowrap;line-height:1.5;max-width:200px;text-align:center"><span class="edgeLabel"/></div></foreignObject></g><g class="edgeLabel"><foreignObject width="0" height="0" class="label"><div xmlns="http://www.w3.org/1999/xhtml" class="labelBkg" style="display:table-cell;white-space:nowrap;line-height:1.5;max-width:200px;text-align:center"><span class="edgeLabel"/></div></foreignObject></g><g class="edgeLabel"><foreignObject width="0" height="0" class="label"><div xmlns="http://www.w3.org/1999/xhtml" class="labelBkg" style="display:table-cell;white-space:nowrap;line-height:1.5;max-width:200px;text-align:center"><span class="edgeLabel"/></div></foreignObject></g></g><g class="nodes"><g id="vault-pipeline-light-flowchart-S-0" class="node default edge"><g class="basic label-container outer-path"><path stroke="none" stroke-width="0" d="M-73.79-27.5H73.79l1.761.057 1.755.169 1.74.281c.652.15 1.305.298 1.719.392l1.69.502 1.654.609 1.612.713 1.563.816 1.507.914 1.446 1.008 1.378 1.1 1.305 1.184 1.227 1.267 1.142 1.342 1.055 1.413.961 1.477.866 1.536.764 1.588.662 1.634.555 1.673.448 1.706.337 1.73.225 1.748.113 1.76V.88l-.113 1.76-.225 1.748-.337 1.73-.448 1.706-.555 1.673-.662 1.634-.764 1.588-.866 1.536-.961 1.477-1.055 1.413-1.142 1.342-1.227 1.267-1.305 1.185-1.378 1.099-1.446 1.008-1.507.914-1.563.816-1.612.713-1.654.609-1.69.502-1.72.392-1.74.281-1.754.17-1.762.056H-73.789l-1.762-.057-1.755-.169-1.74-.281-1.719-.392-1.69-.502-1.654-.609-1.612-.713-1.563-.816-1.507-.914-1.446-1.008-1.378-1.1-1.305-1.184-1.227-1.267-1.142-1.342-1.055-1.413-.961-1.477-.866-1.536-.764-1.588-.662-1.634-.555-1.673-.448-1.706-.337-1.73-.225-1.748-.113-1.76V-.88l.113-1.76.225-1.748.337-1.73.448-1.706.555-1.673.662-1.634.764-1.588.866-1.536.961-1.477 1.055-1.413 1.142-1.342 1.227-1.267 1.305-1.185 1.378-1.099 1.446-1.008 1.507-.914 1.563-.816 1.612-.713 1.654-.609 1.69-.502 1.72-.392 1.74-.281 1.754-.17 1.762-.056" style="fill:#f1f0ec!important;stroke:#cfcfd1!important" transform="translate(109.275 86.047)"/><path fill="none" stroke-dasharray="0 0" stroke-width="1.3" d="M-73.79-27.5H73.79m-147.58 0H73.79m0 0 1.761.057m-1.762-.057 1.762.057m0 0 1.755.169m-1.755-.17 1.755.17m0 0 1.74.281m-1.74-.281 1.74.281m0 0 1.719.392m-1.72-.392 1.72.392m0 0c.436.13.871.26 1.69.502m-1.69-.502 1.69.502m0 0 1.654.609m-1.654-.609 1.654.609m0 0 1.612.713m-1.612-.713 1.612.713m0 0 1.563.816m-1.563-.816 1.563.816m0 0 1.507.914m-1.507-.914 1.507.914m0 0 1.446 1.008m-1.446-1.008 1.446 1.008m0 0 1.378 1.1m-1.378-1.1 1.378 1.1m0 0 1.305 1.184m-1.305-1.185 1.305 1.185m0 0 1.227 1.267m-1.227-1.267 1.227 1.267m0 0 1.142 1.342m-1.142-1.342 1.142 1.342m0 0 1.055 1.413m-1.055-1.413 1.055 1.413m0 0 .961 1.477m-.961-1.477.961 1.477m0 0 .866 1.536m-.866-1.536.866 1.536m0 0 .764 1.588m-.764-1.588.764 1.588m0 0 .662 1.634m-.662-1.634.662 1.634m0 0 .555 1.673m-.555-1.673.555 1.673m0 0 .448 1.706m-.448-1.706.448 1.706m0 0 .337 1.73m-.337-1.73.337 1.73m0 0 .225 1.748m-.225-1.748.225 1.748m0 0 .113 1.76m-.113-1.76.113 1.76m0 0V.88m0-1.762V.88m0 0-.113 1.76m.113-1.76-.113 1.76m0 0-.225 1.748m.225-1.748-.225 1.748m0 0-.337 1.73m.337-1.73-.337 1.73m0 0-.448 1.706m.448-1.706-.448 1.706m0 0-.555 1.673m.555-1.673-.555 1.673m0 0-.662 1.634m.662-1.634-.662 1.634m0 0-.764 1.588m.764-1.588-.764 1.588m0 0-.866 1.536m.866-1.536-.866 1.536m0 0-.961 1.477m.961-1.477-.961 1.477m0 0-1.055 1.413m1.055-1.413-1.055 1.413m0 0-1.142 1.342m1.142-1.342-1.142 1.342m0 0-1.227 1.267m1.227-1.267-1.227 1.267m0 0-1.305 1.185m1.305-1.185-1.305 1.185m0 0-1.378 1.099m1.378-1.1-1.378 1.1m0 0-1.446 1.008m1.446-1.008-1.446 1.008m0 0-1.507.914m1.507-.914-1.507.914m0 0-1.563.816m1.563-.816-1.563.816m0 0-1.612.713m1.612-.713-1.612.713m0 0-1.654.609m1.654-.609-1.654.609m0 0-1.69.502m1.69-.502-1.69.502m0 0-1.72.392m1.72-.392-1.72.392m0 0-1.74.281m1.74-.281-1.74.281m0 0-1.754.17m1.755-.17-1.755.17m0 0-1.762.056m1.762-.057-1.762.057m0 0H-73.789m147.578 0H-73.789m0 0-1.762-.057m1.762.057-1.762-.057m0 0-1.755-.169m1.755.17-1.755-.17m0 0-1.74-.281m1.74.281-1.74-.281m0 0c-.502-.115-1.004-.23-1.719-.392m1.72.392-1.72-.392m0 0-1.69-.502m1.69.502-1.69-.502m0 0-1.654-.609m1.654.609-1.654-.609m0 0-1.612-.713m1.612.713-1.612-.713m0 0-1.563-.816m1.563.816-1.563-.816m0 0-1.507-.914m1.507.914-1.507-.914m0 0-1.446-1.008m1.446 1.008-1.446-1.008m0 0-1.378-1.1m1.378 1.1-1.378-1.1m0 0-1.305-1.184m1.305 1.185-1.305-1.185m0 0-1.227-1.267m1.227 1.267-1.227-1.267m0 0-1.142-1.342m1.142 1.342-1.142-1.342m0 0-1.055-1.413m1.055 1.413-1.055-1.413m0 0-.961-1.477m.961 1.477-.961-1.477m0 0-.866-1.536m.866 1.536-.866-1.536m0 0-.764-1.588m.764 1.588-.764-1.588m0 0-.662-1.634m.662 1.634-.662-1.634m0 0-.555-1.673m.555 1.673-.555-1.673m0 0-.448-1.706m.448 1.706-.448-1.706m0 0-.337-1.73m.337 1.73-.337-1.73m0 0-.225-1.748m.225 1.748-.225-1.748m0 0-.113-1.76m.113 1.76-.113-1.76m0 0V-.88m0 1.762V-.88m0 0 .113-1.76m-.113 1.76.113-1.76m0 0 .225-1.748m-.225 1.748.225-1.748m0 0 .337-1.73m-.337 1.73.337-1.73m0 0 .448-1.706m-.448 1.706.448-1.706m0 0 .555-1.673m-.555 1.673.555-1.673m0 0 .662-1.634m-.662 1.634.662-1.634m0 0 .764-1.588m-.764 1.588.764-1.588m0 0 .866-1.536m-.866 1.536.866-1.536m0 0 .961-1.477m-.961 1.477.961-1.477m0 0 1.055-1.413m-1.055 1.413 1.055-1.413m0 0 1.142-1.342m-1.142 1.342 1.142-1.342m0 0 1.227-1.267m-1.227 1.267 1.227-1.267m0 0 1.305-1.185m-1.305 1.185 1.305-1.185m0 0 1.378-1.099m-1.378 1.1 1.378-1.1m0 0 1.446-1.008m-1.446 1.008 1.446-1.008m0 0 1.507-.914m-1.507.914 1.507-.914m0 0 1.563-.816m-1.563.816 1.563-.816m0 0 1.612-.713m-1.612.713 1.612-.713m0 0 1.654-.609m-1.654.609 1.654-.609m0 0c.642-.19 1.284-.38 1.69-.502m-1.69.502 1.69-.502m0 0 1.72-.392m-1.72.392 1.72-.392m0 0 1.74-.281m-1.74.281 1.74-.281m0 0 1.754-.17m-1.755.17 1.755-.17m0 0 1.762-.056m-1.762.057 1.762-.057m0 0" style="fill:#f1f0ec!important;stroke:#cfcfd1!important" transform="translate(109.275 86.047)"/></g><g class="label" style="color:#1c1d24!important" transform="translate(19.86 63.547)"><rect/><foreignObject width="178.828" height="45"><div xmlns="http://www.w3.org/1999/xhtml" style="color:#1c1d24!important;display:table-cell;white-space:nowrap;line-height:1.5;max-width:200px;text-align:center"><span class="nodeLabel" style="fill:#f1f0ec!important;stroke:#cfcfd1!important;color:#1c1d24!important"><p>iMessage · Gmail · Amazon<br/>calendar · sensors · git</p></span></div></foreignObject></g></g><g id="vault-pipeline-light-flowchart-J-1" class="node default"><path d="M256.55 53.547h174.688v65H256.55z" class="basic label-container"/><g class="label" transform="translate(276.55 63.547)"><rect/><foreignObject width="134.688" height="45"><div xmlns="http://www.w3.org/1999/xhtml" style="display:table-cell;white-space:nowrap;line-height:1.5;max-width:200px;text-align:center"><span class="nodeLabel"><p>7 launchd schedules<br/>~40 scripts</p></span></div></foreignObject></g></g><g id="vault-pipeline-light-flowchart-B-3" class="node default"><path d="M13.75 0h164.297l13.75-27.5-13.75-27.5H13.75L0-27.5z" class="label-container" style="fill:#fff;stroke:#cfcfd1;stroke-width:1px" transform="translate(758.065 201.946)"/><g class="label" transform="translate(776.815 151.946)"><rect/><foreignObject width="154.297" height="45"><div xmlns="http://www.w3.org/1999/xhtml" style="display:table-cell;white-space:nowrap;line-height:1.5;max-width:200px;text-align:center"><span class="nodeLabel"><p>hash-fenced blocks<br/>people + project pages</p></span></div></foreignObject></g></g><g id="vault-pipeline-light-flowchart-L-5" class="node default accent"><path d="M0 12.865a66.258 12.865 0 0 0 132.516 0A66.258 12.865 0 0 0 0 12.865V80.73a66.258 12.865 0 0 0 132.516 0V12.865" class="basic label-container outer-path" style="fill:#2f3eb0!important;stroke:#2f3eb0!important" transform="translate(787.706 8)"/><g class="label" style="color:#fff!important" transform="translate(792.706 38.964)"><rect/><foreignObject width="122.516" height="45"><div xmlns="http://www.w3.org/1999/xhtml" style="color:#fff!important;display:table-cell;white-space:nowrap;line-height:1.5;max-width:200px;text-align:center"><span class="nodeLabel" style="fill:#2f3eb0!important;stroke:#2f3eb0!important;color:#fff!important"><p>Activity Log.md<br/>append-only spine</p></span></div></foreignObject></g></g><g id="vault-pipeline-light-flowchart-F-7" class="node default fail"><path d="M-84.859-32.5H84.86v65H-84.859z" class="basic label-container" style="fill:#f7e6e2!important;stroke:#c0402b!important" transform="translate(627.206 86.047)"/><g class="label" style="color:#8f2b1c!important" transform="translate(562.347 63.547)"><rect/><foreignObject width="129.719" height="45"><div xmlns="http://www.w3.org/1999/xhtml" style="color:#8f2b1c!important;display:table-cell;white-space:nowrap;line-height:1.5;max-width:200px;text-align:center"><span class="nodeLabel" style="fill:#f7e6e2!important;stroke:#c0402b!important;color:#8f2b1c!important"><p>error row, deduped<br/>toast is a courtesy</p></span></div></foreignObject></g></g><g id="vault-pipeline-light-flowchart-V-11" class="node default"><path d="M995.862 79.446h190.766v65H995.862z" class="basic label-container"/><g class="label" transform="translate(1015.862 89.446)"><rect/><foreignObject width="150.766" height="45"><div xmlns="http://www.w3.org/1999/xhtml" style="display:table-cell;white-space:nowrap;line-height:1.5;max-width:200px;text-align:center"><span class="nodeLabel"><p>dashboard · daily note<br/>podcast · standup</p></span></div></foreignObject></g></g></g></g><defs><filter id="vault-pipeline-light-drop-shadow" width="130%" height="130%"><feDropShadow dx="4" dy="4" flood-color="#000" flood-opacity=".06" stdDeviation="0"/></filter></defs><defs><filter id="vault-pipeline-light-drop-shadow-small" width="150%" height="150%"><feDropShadow dx="2" dy="2" flood-color="#000" flood-opacity=".06" stdDeviation="0"/></filter></defs><linearGradient id="vault-pipeline-light-gradient" x1="0%" x2="100%" y1="0%" y2="0%" gradientUnits="objectBoundingBox"><stop offset="0%" stop-color="#cfcfd1"/><stop offset="100%" stop-color="hsl(0, 0%, 90%)"/></linearGradient></svg>